<svg width="24" height="20" viewBox="0 0 24 20" fill="none" xmlns="http://www.w3.org/2000/svg">
<path d="M24 0.276978L22.9029 0.598406L3.26743 6.57183H0V13.429H3.26829L4.95514 13.9381L4.92943 14.0178V14.0453C4.37914 15.8555 5.39829 17.8681 7.28657 18.4373C7.29514 18.4398 7.30543 18.4347 7.31229 18.4373C9.132 18.9901 11.1463 17.983 11.706 16.0801L11.7317 15.9995L22.9029 19.4024L24 19.723V0.276978ZM22.2857 2.58098V17.4198L3.66857 11.7404L3.56314 11.7147H1.71429V8.28612H3.56229L3.66943 8.26041L22.2857 2.58098ZM6.58886 14.4464L10.098 15.4921L10.0723 15.5718V15.5975C9.77743 16.6004 8.71286 17.0907 7.79571 16.8035C6.79286 16.5095 6.27686 15.4715 6.56314 14.5535V14.5278L6.58886 14.4464Z" fill="#A9A9A9"/>
</svg>
