<svg width="24" height="24" viewBox="0 0 24 24" fill="none" xmlns="http://www.w3.org/2000/svg">
<g clip-path="url(#clip0_28_97)">
<path d="M8.8 1.31936e-05C8.05376 -0.0178318 7.31148 0.113738 6.61683 0.386983C5.92219 0.660228 5.2892 1.06963 4.7551 1.59111C4.22101 2.11258 3.79659 2.73561 3.50681 3.42352C3.21704 4.11144 3.06776 4.85036 3.06776 5.59681C3.06776 6.34327 3.21704 7.08219 3.50681 7.77011C3.79659 8.45802 4.22101 9.08104 4.7551 9.60252C5.2892 10.124 5.92219 10.5334 6.61683 10.8066C7.31148 11.0799 8.05376 11.2115 8.8 11.1936C9.54624 11.2115 10.2885 11.0799 10.9832 10.8066C11.6778 10.5334 12.3108 10.124 12.8449 9.60252C13.379 9.08104 13.8034 8.45802 14.0932 7.77011C14.383 7.08219 14.5322 6.34327 14.5322 5.59681C14.5322 4.85036 14.383 4.11144 14.0932 3.42352C13.8034 2.73561 13.379 2.11258 12.8449 1.59111C12.3108 1.06963 11.6778 0.660228 10.9832 0.386983C10.2885 0.113738 9.54624 -0.0178318 8.8 1.31936e-05ZM5.6 14.3904C4.11479 14.3904 2.69041 14.9804 1.6402 16.0306C0.589998 17.0808 0 18.5052 0 19.9904L0 23.9856H17.6V19.9904C17.6 18.5052 17.01 17.0808 15.9598 16.0306C14.9096 14.9804 13.4852 14.3904 12 14.3904H5.6ZM20 16H19.2V24H24V20C24 18.9391 23.5786 17.9217 22.8284 17.1716C22.0783 16.4214 21.0609 16 20 16Z" fill="#A9A9A9"/>
<path d="M18.4 6.40002C17.3392 6.40002 16.3217 6.82145 15.5716 7.5716C14.8215 8.32174 14.4 9.33916 14.4 10.4C14.4 11.4609 14.8215 12.4783 15.5716 13.2285C16.3217 13.9786 17.3392 14.4 18.4 14.4C19.4609 14.4 20.4783 13.9786 21.2285 13.2285C21.9786 12.4783 22.4 11.4609 22.4 10.4C22.4 9.33916 21.9786 8.32174 21.2285 7.5716C20.4783 6.82145 19.4609 6.40002 18.4 6.40002Z" fill="#A9A9A9"/>
</g>
<defs>
<clipPath id="clip0_28_97">
<rect width="24" height="24" fill="white"/>
</clipPath>
</defs>
</svg>
