<svg width="24" height="24" viewBox="0 0 24 24" fill="none" xmlns="http://www.w3.org/2000/svg">
<path d="M12.0187 0.357544C5.39338 0.357544 0 5.07488 0 10.8739C0 16.6729 5.39338 21.3902 12.0187 21.3902C13.2582 21.3888 14.4917 21.2169 15.6844 20.8794L19.8383 23.5236C19.9517 23.5963 20.0826 23.6372 20.2173 23.642C20.3519 23.6468 20.4854 23.6153 20.6037 23.5508C20.722 23.4862 20.8207 23.3911 20.8896 23.2753C20.9585 23.1595 20.9949 23.0273 20.9951 22.8926V17.8372C21.935 16.9356 22.6851 15.855 23.2011 14.6592C23.7171 13.4633 23.9887 12.1763 23.9998 10.8739C24.0374 5.07488 18.644 0.357544 12.0187 0.357544ZM18.028 10.8739C18.028 11.0731 17.9489 11.2642 17.808 11.405C17.6671 11.5459 17.4761 11.6251 17.2769 11.6251H6.76051C6.56129 11.6251 6.37022 11.5459 6.22935 11.405C6.08848 11.2642 6.00934 11.0731 6.00934 10.8739C6.00934 10.6747 6.08848 10.4836 6.22935 10.3427C6.37022 10.2019 6.56129 10.1227 6.76051 10.1227H17.2769C17.4761 10.1227 17.6671 10.2019 17.808 10.3427C17.9489 10.4836 18.028 10.6747 18.028 10.8739ZM15.5867 14.6297C15.5867 14.8289 15.5076 15.02 15.3667 15.1609C15.2258 15.3018 15.0348 15.3809 14.8356 15.3809H9.2018C9.00258 15.3809 8.81152 15.3018 8.67065 15.1609C8.52978 15.02 8.45064 14.8289 8.45064 14.6297C8.45064 14.4305 8.52978 14.2394 8.67065 14.0986C8.81152 13.9577 9.00258 13.8786 9.2018 13.8786H14.8356C15.0348 13.8786 15.2258 13.9577 15.3667 14.0986C15.5076 14.2394 15.5867 14.4305 15.5867 14.6297ZM6.21967 7.11805C6.21967 6.91883 6.29881 6.72777 6.43968 6.5869C6.58055 6.44602 6.77161 6.36688 6.97084 6.36688H17.0665C17.2657 6.36688 17.4568 6.44602 17.5977 6.5869C17.7386 6.72777 17.8177 6.91883 17.8177 7.11805C17.8177 7.31727 17.7386 7.50834 17.5977 7.64921C17.4568 7.79008 17.2657 7.86922 17.0665 7.86922H6.97084C6.77161 7.86922 6.58055 7.79008 6.43968 7.64921C6.29881 7.50834 6.21967 7.31727 6.21967 7.11805Z" fill="#A9A9A9"/>
</svg>
