<svg width="24" height="24" viewBox="0 0 24 24" fill="none" xmlns="http://www.w3.org/2000/svg">
<path d="M2.66667 24C1.93334 24 1.30534 23.7387 0.782669 23.216C0.260002 22.6933 -0.000886625 22.0658 2.26372e-06 21.3333V2.66667C2.26372e-06 1.93334 0.261336 1.30534 0.784002 0.782669C1.30667 0.260002 1.93422 -0.000886625 2.66667 2.26372e-06H8C8.73333 2.26372e-06 9.36133 0.261336 9.884 0.784002C10.4067 1.30667 10.6676 1.93422 10.6667 2.66667V21.3333C10.6667 22.0667 10.4053 22.6947 9.88267 23.2173C9.36 23.74 8.73244 24.0009 8 24H2.66667ZM16 9.33333C15.2667 9.33333 14.6387 9.072 14.116 8.54933C13.5933 8.02667 13.3324 7.39911 13.3333 6.66667V2.66667C13.3333 1.93334 13.5947 1.30534 14.1173 0.782669C14.64 0.260002 15.2676 -0.000886625 16 2.26372e-06H21.3333C22.0667 2.26372e-06 22.6947 0.261336 23.2173 0.784002C23.74 1.30667 24.0009 1.93422 24 2.66667V6.66667C24 7.4 23.7387 8.028 23.216 8.55067C22.6933 9.07333 22.0658 9.33422 21.3333 9.33333H16ZM16 24C15.2667 24 14.6387 23.7387 14.116 23.216C13.5933 22.6933 13.3324 22.0658 13.3333 21.3333V14.6667C13.3333 13.9333 13.5947 13.3053 14.1173 12.7827C14.64 12.26 15.2676 11.9991 16 12H21.3333C22.0667 12 22.6947 12.2613 23.2173 12.784C23.74 13.3067 24.0009 13.9342 24 14.6667V21.3333C24 22.0667 23.7387 22.6947 23.216 23.2173C22.6933 23.74 22.0658 24.0009 21.3333 24H16Z" fill="#A9A9A9"/>
</svg>
