<svg width="26" height="26" viewBox="0 0 26 26" fill="none" xmlns="http://www.w3.org/2000/svg">
<path d="M24.2047 10.4483C23.8298 8.26028 22.8224 6.22989 21.3069 4.6077C19.7915 2.9855 17.8342 1.8425 15.6767 1.31972C13.5192 0.796948 11.2559 0.917279 9.16596 1.66587C7.07605 2.41446 5.25103 3.75854 3.91611 5.53227C2.5812 7.306 1.7948 9.43176 1.65395 11.6472C1.51311 13.8627 2.02398 16.0709 3.12353 17.9994C4.22309 19.9279 5.8632 21.4923 7.84149 22.4995C9.81978 23.5067 12.0497 23.9127 14.256 23.6674M9.21092 9.842H9.22356M16.7899 9.842H16.8026" stroke="#A9A9A9" stroke-width="2" stroke-linecap="round" stroke-linejoin="round"/>
<path d="M9.84253 16.1578C10.6737 16.9662 11.8131 17.421 13.0004 17.421C13.4514 17.421 13.896 17.3553 14.3179 17.2302M24.369 16.1578H21.211C20.7085 16.1578 20.2266 16.3574 19.8712 16.7128C19.5159 17.0681 19.3163 17.5501 19.3163 18.0526C19.3163 18.5551 19.5159 19.037 19.8712 19.3924C20.2266 19.7477 20.7085 19.9473 21.211 19.9473H22.4742C22.9767 19.9473 23.4587 20.1469 23.814 20.5023C24.1693 20.8576 24.369 21.3396 24.369 21.8421C24.369 22.3446 24.1693 22.8265 23.814 23.1819C23.4587 23.5372 22.9767 23.7368 22.4742 23.7368H19.3163M21.8426 23.7368V25M21.8426 14.8947V16.1578" stroke="#A9A9A9" stroke-width="2" stroke-linecap="round" stroke-linejoin="round"/>
</svg>
