<svg width="22" height="24" viewBox="0 0 22 24" fill="none" xmlns="http://www.w3.org/2000/svg">
<path d="M2.60001 24C1.94001 24 1.37481 23.7648 0.904414 23.2944C0.434014 22.824 0.199214 22.2592 0.200014 21.6V4.8C0.200014 4.14 0.435214 3.5748 0.905614 3.1044C1.37601 2.634 1.94081 2.3992 2.60001 2.4H3.80001V0H6.20001V2.4H15.8V0H18.2V2.4H19.4C20.06 2.4 20.6252 2.6352 21.0956 3.1056C21.566 3.576 21.8008 4.1408 21.8 4.8V21.6C21.8 22.26 21.5648 22.8252 21.0944 23.2956C20.624 23.766 20.0592 24.0008 19.4 24H2.60001ZM2.60001 21.6H19.4V9.6H2.60001V21.6Z" fill="#A9A9A9"/>
</svg>
