<svg width="24" height="26" viewBox="0 0 24 26" fill="none" xmlns="http://www.w3.org/2000/svg">
<path d="M12.0046 9.55009C11.1578 9.55009 10.3649 9.8786 9.76449 10.479C9.16694 11.0794 8.8356 11.8723 8.8356 12.7191C8.8356 13.5659 9.16694 14.3588 9.76449 14.9592C10.3649 15.5568 11.1578 15.8881 12.0046 15.8881C12.8514 15.8881 13.6443 15.5568 14.2447 14.9592C14.8423 14.3588 15.1736 13.5659 15.1736 12.7191C15.1736 11.8723 14.8423 11.0794 14.2447 10.479C13.9515 10.1835 13.6024 9.9492 13.2179 9.78974C12.8333 9.63028 12.4209 9.54882 12.0046 9.55009ZM23.681 16.2195L21.8288 14.6364C21.9166 14.0983 21.9619 13.5489 21.9619 13.0023C21.9619 12.4557 21.9166 11.9035 21.8288 11.3682L23.681 9.78515C23.8209 9.66537 23.921 9.50584 23.9681 9.32777C24.0151 9.1497 24.0068 8.96153 23.9443 8.78828L23.9188 8.71465C23.4091 7.28928 22.6454 5.96805 21.6646 4.81498L21.6136 4.75551C21.4945 4.61547 21.3358 4.51481 21.1583 4.46678C20.9809 4.41875 20.793 4.42562 20.6196 4.48647L18.32 5.30492C17.4704 4.60824 16.5245 4.05884 15.4993 3.67652L15.0547 1.27215C15.0211 1.09102 14.9333 0.924383 14.8028 0.794381C14.6722 0.664379 14.5053 0.577163 14.324 0.544322L14.2476 0.530162C12.7749 0.263953 11.223 0.263953 9.75033 0.530162L9.67387 0.544322C9.49261 0.577163 9.32564 0.664379 9.19513 0.794381C9.06462 0.924383 8.97676 1.09102 8.94321 1.27215L8.49576 3.68784C7.48028 4.07321 6.5343 4.62129 5.69491 5.31058L3.37833 4.48647C3.20491 4.42513 3.01694 4.41802 2.83938 4.46608C2.66183 4.51413 2.5031 4.61508 2.38429 4.75551L2.33332 4.81498C1.35427 5.96928 0.590706 7.29017 0.0790443 8.71465L0.0535562 8.78828C-0.0738839 9.14228 0.0309003 9.53876 0.316933 9.78515L2.19172 11.3852C2.10393 11.9176 2.06145 12.4614 2.06145 12.9995C2.06145 13.5432 2.10393 14.087 2.19172 14.6137L0.322596 16.2138C0.182683 16.3336 0.0825458 16.4931 0.0354993 16.6712C-0.0115473 16.8492 -0.00327368 17.0374 0.0592202 17.2107L0.0847082 17.2843C0.597301 18.7088 1.35345 20.0257 2.33898 21.184L2.38996 21.2434C2.50906 21.3835 2.66779 21.4841 2.84524 21.5322C3.02269 21.5802 3.21052 21.5733 3.38399 21.5125L5.70057 20.6884C6.54451 21.3822 7.48473 21.9316 8.50142 22.3111L8.94888 24.7268C8.98242 24.9079 9.07028 25.0746 9.20079 25.2046C9.3313 25.3346 9.49827 25.4218 9.67953 25.4546L9.756 25.4688C11.2431 25.7364 12.7661 25.7364 14.2532 25.4688L14.3297 25.4546C14.5109 25.4218 14.6779 25.3346 14.8084 25.2046C14.9389 25.0746 15.0268 24.9079 15.0603 24.7268L15.505 22.3224C16.5301 21.9373 17.476 21.3907 18.3256 20.694L20.6252 21.5125C20.7986 21.5738 20.9866 21.5809 21.1642 21.5329C21.3417 21.4848 21.5004 21.3839 21.6193 21.2434L21.6702 21.184C22.6558 20.02 23.4119 18.7088 23.9245 17.2843L23.95 17.2107C24.0718 16.8595 23.967 16.4658 23.681 16.2195ZM12.0046 17.6978C9.25473 17.6978 7.02595 15.469 7.02595 12.7191C7.02595 9.96923 9.25473 7.74044 12.0046 7.74044C14.7545 7.74044 16.9833 9.96923 16.9833 12.7191C16.9833 15.469 14.7545 17.6978 12.0046 17.6978Z" fill="#A9A9A9"/>
</svg>
